<?xml version="1.0" encoding="UTF-8"?>
<svg width="1118px" height="524px" viewBox="0 0 1118 524" version="1.1" xmlns="http://www.w3.org/2000/svg" xmlns:xlink="http://www.w3.org/1999/xlink">
    <!-- Generator: Sketch 48.2 (47327) - http://www.bohemiancoding.com/sketch -->
    <title>bottom</title>
    <desc>Created with Sketch.</desc>
    <defs></defs>
    <g id="Page-1" stroke="none" stroke-width="1" fill="none" fill-rule="evenodd">
        <g id="bottom" stroke="#000000">
            <path d="M1085,491 L788.369812,491 L787.869812,315 C816.864761,315 841.369812,291.494949 841.369812,262.5 C841.369812,233.505051 816.864761,210 787.869812,210 L788.369812,33 L1085,33 L1085,210.002166 C1055.50505,210 1032,233.505051 1032,262.5 C1032,291.494949 1055.50505,315 1084.5,315 L1085,491 Z" id="path0"></path>
            <path d="M787,263 C787,250.297451 797.297451,240 810,240 C822.702549,240 833,250.297451 833,263 C833,271.217109 828.616225,278.81003 821.5,282.918584 C814.383775,287.027139 805.616225,287.027139 798.5,282.918584 C791.383775,278.81003 787,271.217109 787,263 Z" id="path1"></path>
            <path d="M1040,263 C1040,250.297451 1050.29745,240 1063,240 C1075.70255,240 1086,250.297451 1086,263 C1086,275.702549 1075.70255,286 1063,286 C1050.29745,286 1040,275.702549 1040,263 Z" id="path2"></path>
            <path d="M69.5224799,307.775083 C52.6701666,278.62525 51.5694277,249.437312 66.2202629,220.211268 L63.7728164,215.977864 C71.2191583,202.171037 80.7851124,191.697782 92.4706785,184.558099 C104.156245,177.418417 119.322108,168.473127 137.968269,157.72223 L140.603366,162.280219 L262.842491,91.8002811 L260.420057,87.6101428 C276.29867,78.3859621 290.298164,70.3142137 302.41854,63.394897 C314.538915,56.4755808 329.790417,52.6772816 348.173047,52 L350.620493,56.2334044 C384.240301,59.7318772 409.020211,75.2670141 424.960221,102.838816 C449.151955,144.683811 431.452405,200.232287 392.598464,222.634471 C378.790524,230.595775 364.952978,234.763548 351.085825,235.137789 C338.941277,250.786389 323.122546,255.969852 303.629632,250.688174 C285.568546,261.101732 276.958872,266.065849 257.837627,277.090667 C253.162806,295.281676 240.804593,306.344316 220.762987,310.278588 C211.962153,323.370444 201.962218,333.073361 190.763182,339.38734 C150.513573,362.079936 94.8009499,351.499831 69.5224799,307.775083 Z" id="path3"></path>
            <path d="M335.52248,430.775083 C318.670167,401.62525 317.569428,372.437312 332.220263,343.211268 L329.772816,338.977864 C337.219158,325.171037 346.785112,314.697782 358.470679,307.558099 C370.156245,300.418417 385.322108,291.473127 403.968269,280.72223 L406.603366,285.280219 L528.842491,214.800281 L526.420057,210.610143 C542.29867,201.385962 556.298164,193.314214 568.41854,186.394897 C580.538915,179.475581 595.790417,175.677282 614.173047,175 L616.620493,179.233404 C650.240301,182.731877 675.020211,198.267014 690.960221,225.838816 C715.151955,267.683811 697.452405,323.232287 658.598464,345.634471 C644.790524,353.595775 630.952978,357.763548 617.085825,358.137789 C604.941277,373.786389 589.122546,378.969852 569.629632,373.688174 C551.568546,384.101732 542.958872,389.065849 523.837627,400.090667 C519.162806,418.281676 506.804593,429.344316 486.762987,433.278588 C477.962153,446.370444 467.962218,456.073361 456.763182,462.38734 C416.513573,485.079936 360.80095,474.499831 335.52248,430.775083 Z" id="path3"></path>
        </g>
    </g>
</svg>